<svg height="488pt" viewBox="-4 0 488 488" width="488pt" xmlns="http://www.w3.org/2000/svg"><path d="m112 184v-32h48v32" fill="#bc8f6f"/><path d="m112 184v-32h32v32" fill="#cb9e78"/><path d="m368 120h112v32h-112zm0 0" fill="#bc8f6f"/><path d="m368 120h72v32h-72zm0 0" fill="#cb9e78"/><path d="m464 152h-80v296c0 22.089844 17.910156 40 40 40s40-17.910156 40-40zm0 0" fill="#bab8b9"/><path d="m412 485.96875c16.183594-5.121094 28-20.082031 28-37.96875v-296h-56v296c0 17.878906 11.816406 32.839844 28 37.96875zm0 0" fill="#d9d7d8"/><path d="m424 488c22.089844 0 40-17.910156 40-40v-184h-80v184c0 22.089844 17.910156 40 40 40zm0 0" fill="#d46b69"/><path d="m412 485.96875c16.183594-5.121094 28-20.082031 28-37.96875v-184h-56v184c0 17.878906 11.816406 32.839844 28 37.96875zm0 0" fill="#ed7775"/><path d="m240 488c17.671875 0 32-14.328125 32-32v-7.839844c0-5.351562-1.34375-10.625-3.902344-15.320312l-92.097656-168.839844v-80h-79.929688v80l-92.085937 168.839844c-2.558594 4.703125-3.90625 9.96875-3.90625 15.320312v7.839844c0 17.671875 14.328125 32 32 32zm0 0" fill="#bab8b9"/><path d="m248 456v-7.839844c0-5.351562-1.34375-10.625-3.902344-15.320312l-92.097656-168.839844v-80h-55.929688v80l-92.085937 168.839844c-2.558594 4.703125-3.90625 9.96875-3.90625 15.320312v7.839844c0 17.671875 14.328125 32 32 32h183.921875c17.671875 0 32-14.328125 32-32zm0 0" fill="#d9d7d8"/><path d="m272 456v-7.839844c0-5.351562-1.34375-10.625-3.902344-15.320312l-57.1875-104.839844h-12.285156c-4.242188 0-8.3125 1.6875-11.3125 4.6875l-6.625 6.625c-3 3-7.070312 4.6875-11.3125 4.6875h-2.742188c-4.242187 0-8.3125-1.6875-11.3125-4.6875l-6.625-6.625c-3.007812-3-7.078124-4.6875-11.320312-4.6875h-2.742188c-4.242187 0-8.3125 1.6875-11.3125 4.6875l-6.625 6.625c-3.007812 3-7.078124 4.6875-11.320312 4.6875h-2.742188c-4.242187 0-8.3125-1.6875-11.3125-4.6875l-6.625-6.625c-3.007812-3-7.078124-4.6875-11.320312-4.6875h-12.207031l-57.183594 104.839844c-2.558594 4.703125-3.90625 9.96875-3.90625 15.320312v7.839844c0 17.671875 14.328125 32 32 32h207.921875c17.671875 0 32-14.328125 32-32zm0 0" fill="#599072"/><path d="m256 280v68.183594c-27.945312 9.894531-48 36.480468-48 67.816406 0 39.769531 32.230469 72 72 72s72-32.230469 72-72c0-31.335938-20.054688-57.921875-48-67.816406v-68.183594" fill="#bab8b9"/><path d="m208 416c0 37.054688 28.007812 67.542969 64 71.527344 35.992188-3.984375 64-34.472656 64-71.527344 0-31.335938-20.054688-57.921875-48-67.816406v-68.183594h-32v68.183594c-27.945312 9.894531-48 36.480468-48 67.816406zm0 0" fill="#d9d7d8"/><path d="m352 416c0-2.710938-.199219-5.367188-.496094-8h-8.878906c-4.242188 0-8.3125 1.6875-11.3125 4.6875l-6.625 6.625c-3 3-7.070312 4.6875-11.3125 4.6875h-2.742188c-4.242187 0-8.3125-1.6875-11.3125-4.6875l-6.625-6.625c-3.007812-3-7.078124-4.6875-11.320312-4.6875h-2.742188c-4.242187 0-8.3125 1.6875-11.3125 4.6875l-6.625 6.625c-3.007812 3-7.078124 4.6875-11.320312 4.6875h-2.742188c-4.242187 0-8.3125-1.6875-11.3125-4.6875l-6.625-6.625c-3.007812-3-7.078124-4.6875-11.320312-4.6875h-8.878906c-.296875 2.632812-.496094 5.289062-.496094 8 0 39.769531 32.230469 72 72 72s72-32.230469 72-72zm0 0" fill="#85b6cf"/><path d="m272 487.527344c35.992188-3.984375 64-34.472656 64-71.527344 0-2.136719-.191406-4.222656-.390625-6.304688-1.570313.769532-3.042969 1.738282-4.296875 2.992188l-6.625 6.625c-3 3-7.070312 4.6875-11.3125 4.6875h-2.742188c-2.3125 0-4.5625-.542969-6.625-1.488281-2.070312.945312-4.320312 1.488281-6.632812 1.488281h-2.742188c-4.242187 0-8.3125-1.6875-11.3125-4.6875l-6.625-6.625c-1.359374-1.359375-2.96875-2.414062-4.6875-3.199219-1.71875.785157-3.320312 1.839844-4.6875 3.199219l-6.625 6.625c-3.007812 3-7.078124 4.6875-11.320312 4.6875h-2.742188c-2.3125 0-4.5625-.542969-6.625-1.488281-2.070312.945312-4.320312 1.488281-6.632812 1.488281h-2.742188c-4.242187 0-8.3125-1.6875-11.3125-4.6875l-6.625-6.625c-1.253906-1.253906-2.726562-2.222656-4.296874-2.992188-.207032 2.082032-.398438 4.167969-.398438 6.304688 0 37.054688 28.007812 67.542969 64 71.527344zm0 0" fill="#94cce7"/><path d="m128 424c0 8.835938-7.164062 16-16 16s-16-7.164062-16-16 7.164062-16 16-16 16 7.164062 16 16zm0 0" fill="#70b48f"/><path d="m184 392c0 8.835938-7.164062 16-16 16s-16-7.164062-16-16 7.164062-16 16-16 16 7.164062 16 16zm0 0" fill="#70b48f"/><path d="m64 440c0 8.835938-7.164062 16-16 16s-16-7.164062-16-16 7.164062-16 16-16 16 7.164062 16 16zm0 0" fill="#70b48f"/><path d="m64 40c0 17.671875-14.328125 32-32 32s-32-14.328125-32-32 14.328125-32 32-32 32 14.328125 32 32zm0 0" fill="#599072"/><path d="m80 120c0 8.835938-7.164062 16-16 16s-16-7.164062-16-16 7.164062-16 16-16 16 7.164062 16 16zm0 0" fill="#85b6cf"/><path d="m48 192c0 13.253906-10.746094 24-24 24s-24-10.746094-24-24 10.746094-24 24-24 24 10.746094 24 24zm0 0" fill="#cb9e78"/><path d="m232 272h96v16h-96zm0 0"/><path d="m232 272h96v16h-96zm0 0" fill="#bc8f6f"/><path d="m232 272h72v16h-72zm0 0" fill="#cb9e78"/><path d="m256 304h48v16h-48zm0 0" fill="#bc8f6f"/><path d="m256 304h32v16h-32zm0 0" fill="#cb9e78"/><path d="m72 208h128v16h-128zm0 0" fill="#bc8f6f"/><path d="m72 208h80v16h-80zm0 0" fill="#cb9e78"/><path d="m176 448h16v16h-16zm0 0" fill="#70b48f"/><path d="m160 432h16v16h-16zm0 0" fill="#70b48f"/><path d="m144 448h16v16h-16zm0 0" fill="#70b48f"/><path d="m80 376h16v16h-16zm0 0" fill="#70b48f"/><g fill="#d46b69"><path d="m408 440h16v16h-16zm0 0"/><path d="m424 408h16v16h-16zm0 0"/><path d="m408 376h16v16h-16zm0 0"/><path d="m424 344h16v16h-16zm0 0"/><path d="m408 312h16v16h-16zm0 0"/></g><path d="m168 128h-16v-104c0-13.230469 10.769531-24 24-24h272c13.230469 0 24 10.769531 24 24v72h-16v-72c0-4.40625-3.585938-8-8-8h-272c-4.414062 0-8 3.59375-8 8zm0 0" fill="#ed7775"/><path d="m312 256h-16v-168c0-4.40625-3.585938-8-8-8h-160c-4.414062 0-8 3.59375-8 8v40h-16v-40c0-13.230469 10.769531-24 24-24h160c13.230469 0 24 10.769531 24 24zm0 0" fill="#599072"/><path d="m264 256h-16v-200c0-13.230469 10.769531-24 24-24h96c13.230469 0 24 10.769531 24 24v40h-16v-40c0-4.40625-3.585938-8-8-8h-96c-4.414062 0-8 3.59375-8 8zm0 0" fill="#94cce7"/></svg>